<svg width="2568" height="1331" xmlns="http://www.w3.org/2000/svg" xmlns:xlink="http://www.w3.org/1999/xlink" xml:space="preserve" overflow="hidden"><g transform="translate(-422 -401)"><path d="M1061.83 1087.99 2356.1 974.754C2391.84 971.628 2423.35 998.066 2426.48 1033.81 2429.6 1069.55 2403.17 1101.05 2367.43 1104.18L1073.16 1217.42C1037.42 1220.54 1005.91 1194.1 1002.78 1158.36 999.655 1122.62 1026.09 1091.12 1061.83 1087.99Z" stroke="#000000" stroke-width="4.58333" stroke-miterlimit="8" fill="#FFFFFF" fill-rule="evenodd"/><path d="M1073.16 1086.56 2367.43 1199.79C2403.17 1202.92 2429.6 1234.43 2426.48 1270.17 2423.35 1305.91 2391.84 1332.34 2356.1 1329.22L1061.83 1215.98C1026.09 1212.86 999.655 1181.35 1002.78 1145.61 1005.91 1109.87 1037.42 1083.43 1073.16 1086.56Z" stroke="#000000" stroke-width="4.58333" stroke-miterlimit="8" fill="#FFFFFF" fill-rule="evenodd"/><path d="M1061.83 863.754 2356.1 750.52C2391.84 747.393 2423.35 773.832 2426.48 809.572 2429.6 845.312 2403.17 876.82 2367.43 879.947L1073.16 993.181C1037.42 996.308 1005.91 969.87 1002.78 934.129 999.655 898.389 1026.09 866.881 1061.83 863.754Z" stroke="#000000" stroke-width="4.58333" stroke-miterlimit="8" fill="#FFFFFF" fill-rule="evenodd"/><path d="M1073.16 862.323 2367.43 975.557C2403.17 978.684 2429.6 1010.19 2426.48 1045.93 2423.35 1081.67 2391.84 1108.11 2356.1 1104.98L1061.83 991.75C1026.09 988.623 999.655 957.115 1002.78 921.375 1005.91 885.635 1037.42 859.197 1073.16 862.323Z" stroke="#000000" stroke-width="4.58333" stroke-miterlimit="8" fill="#FFFFFF" fill-rule="evenodd"/><path d="M1058.89 640.748 2353.16 527.514C2388.9 524.388 2420.41 550.826 2423.54 586.566 2426.66 622.306 2400.22 653.814 2364.48 656.941L1070.22 770.175C1034.47 773.302 1002.97 746.864 999.84 711.123 996.713 675.383 1023.15 643.875 1058.89 640.748Z" stroke="#000000" stroke-width="4.58333" stroke-miterlimit="8" fill="#FFFFFF" fill-rule="evenodd"/><path d="M1070.21 639.317 2364.48 752.551C2400.22 755.678 2426.66 787.186 2423.54 822.926 2420.41 858.667 2388.9 885.105 2353.16 881.978L1058.89 768.744C1023.15 765.617 996.713 734.109 999.84 698.369 1002.97 662.629 1034.47 636.191 1070.21 639.317Z" stroke="#000000" stroke-width="4.58333" stroke-miterlimit="8" fill="#FFFFFF" fill-rule="evenodd"/><rect x="737" y="401" width="1949" height="130"/><rect x="737" y="1331" width="1949" height="130"/><path d="M2372 1544 2372 1610" stroke="#000000" stroke-width="2.29167" stroke-miterlimit="8" fill="none" fill-rule="evenodd"/><path d="M0 0 66 66" stroke="#000000" stroke-width="16.0417" stroke-miterlimit="8" fill="none" fill-rule="evenodd" transform="matrix(-1 0 0 1 2405 1544)"/><path d="M1074 1579 2356.1 1579" stroke="#000000" stroke-width="2.29167" stroke-miterlimit="8" fill="none" fill-rule="evenodd"/><path d="M1076 1547 1076 1613" stroke="#000000" stroke-width="2.29167" stroke-miterlimit="8" fill="none" fill-rule="evenodd"/><path d="M0 0 66 66" stroke="#000000" stroke-width="16.0417" stroke-miterlimit="8" fill="none" fill-rule="evenodd" transform="matrix(-1 0 0 1 1109 1547)"/><text font-family="Times New Roman,Times New Roman_MSFontService,sans-serif" font-style="italic" font-weight="400" font-size="73" transform="matrix(1 0 0 1 1688.5 1671)">D</text><path d="M873 929 873 1143.26" stroke="#000000" stroke-width="2.29167" stroke-miterlimit="8" fill="none" fill-rule="evenodd"/><path d="M840 929 906 929" stroke="#000000" stroke-width="2.29167" stroke-miterlimit="8" fill="none" fill-rule="evenodd"/><path d="M0 0 66 66" stroke="#000000" stroke-width="16.0417" stroke-miterlimit="8" fill="none" fill-rule="evenodd" transform="matrix(1.83697e-16 1 1 -1.83697e-16 840 896)"/><path d="M840 1144 906 1144" stroke="#000000" stroke-width="2.29167" stroke-miterlimit="8" fill="none" fill-rule="evenodd"/><path d="M0 0 66 66" stroke="#000000" stroke-width="16.0417" stroke-miterlimit="8" fill="none" fill-rule="evenodd" transform="matrix(1.83697e-16 1 1 -1.83697e-16 840 1111)"/><text font-family="Times New Roman,Times New Roman_MSFontService,sans-serif" font-style="italic" font-weight="400" font-size="73" transform="matrix(1 0 0 1 769.148 1063)">f</text><text font-family="Times New Roman,Times New Roman_MSFontService,sans-serif" font-style="italic" font-weight="400" font-size="49" transform="matrix(1 0 0 1 789.773 1080)">b</text><path d="M2295 592C2295 556.101 2324.1 527 2360 527 2395.9 527 2425 556.101 2425 592 2425 627.898 2395.9 657 2360 657 2324.1 657 2295 627.898 2295 592Z" fill-rule="evenodd"/><path d="M2782 662.921 2782 533" stroke="#000000" stroke-width="2.29167" stroke-miterlimit="8" fill="none" fill-rule="evenodd"/><path d="M2749 530 2815 530" stroke="#000000" stroke-width="2.29167" stroke-miterlimit="8" fill="none" fill-rule="evenodd"/><path d="M0 0 66 66" stroke="#000000" stroke-width="16.0417" stroke-miterlimit="8" fill="none" fill-rule="evenodd" transform="matrix(1.83697e-16 1 1 -1.83697e-16 2749 497)"/><text font-family="Times New Roman,Times New Roman_MSFontService,sans-serif" font-style="italic" font-weight="400" font-size="73" transform="matrix(1 0 0 1 2858.66 631)">d</text><path d="M2749 657 2815 657" stroke="#000000" stroke-width="2.29167" stroke-miterlimit="8" fill="none" fill-rule="evenodd"/><path d="M0 0 66 66" stroke="#000000" stroke-width="16.0417" stroke-miterlimit="8" fill="none" fill-rule="evenodd" transform="matrix(1.83697e-16 1 1 -1.83697e-16 2749 624)"/><path d="M580 522 646 522" stroke="#000000" stroke-width="2.29167" stroke-miterlimit="8" fill="none" fill-rule="evenodd"/><path d="M0 0 66 66" stroke="#000000" stroke-width="16.0417" stroke-miterlimit="8" fill="none" fill-rule="evenodd" transform="matrix(1.83697e-16 1 1 -1.83697e-16 580 489)"/><path d="M613 523 613 1334.78" stroke="#000000" stroke-width="2.29167" stroke-miterlimit="8" fill="none" fill-rule="evenodd"/><text font-family="Times New Roman,Times New Roman_MSFontService,sans-serif" font-style="italic" font-weight="400" font-size="73" transform="matrix(1 0 0 1 483.106 959)">H</text><text font-family="Times New Roman,Times New Roman_MSFontService,sans-serif" font-style="italic" font-weight="400" font-size="49" transform="matrix(1 0 0 1 535.814 976)">0</text><path d="M580 1335 646 1335" stroke="#000000" stroke-width="2.29167" stroke-miterlimit="8" fill="none" fill-rule="evenodd"/><path d="M0 0 66 66" stroke="#000000" stroke-width="16.0417" stroke-miterlimit="8" fill="none" fill-rule="evenodd" transform="matrix(1.83697e-16 1 1 -1.83697e-16 580 1302)"/><path d="M0 0 0.000360892 343.759" stroke="#000000" stroke-width="2.29167" stroke-miterlimit="8" fill="none" fill-rule="evenodd" transform="matrix(1 0 0 -1 2479 1103.76)"/><path d="M2446 760 2512 760" stroke="#000000" stroke-width="2.29167" stroke-miterlimit="8" fill="none" fill-rule="evenodd"/><path d="M0 0 66 66" stroke="#000000" stroke-width="16.0417" stroke-miterlimit="8" fill="none" fill-rule="evenodd" transform="matrix(1.83697e-16 1 1 -1.83697e-16 2446 727)"/><text font-family="Times New Roman,Times New Roman_MSFontService,sans-serif" font-style="italic" font-weight="400" font-size="73" transform="matrix(1 0 0 1 2568.51 966)">n </text><path d="M2446 1103 2512 1103" stroke="#000000" stroke-width="2.29167" stroke-miterlimit="8" fill="none" fill-rule="evenodd"/><path d="M0 0 66 66" stroke="#000000" stroke-width="16.0417" stroke-miterlimit="8" fill="none" fill-rule="evenodd" transform="matrix(1.83697e-16 1 1 -1.83697e-16 2446 1070)"/></g></svg>